<svg
  width="256"
  height="256"
  viewBox="0 0 256 256"
  fill="none"
  xmlns="http://www.w3.org/2000/svg"
>
  <path
    d="M89.223 200.712C83.134 199.16 77.0945 196.839 71.203 193.673L41.496 211.027L23.8175 193.348L39.8785 163.342C36.7616 157.866 34.3153 152.034 32.5925 145.973L0 137.12V112.075L32.4185 102.553C34.0825 96.5095 36.4635 90.6355 39.5685 85.079L23.0805 55.601L40.76 37.9225L70.474 54.6135C76.1425 51.4935 81.956 49.155 87.82 47.542L96.9885 14.105H122.034L131.469 48.243C136.974 49.9303 142.283 52.1998 147.307 55.013L178.508 37.1855L196.186 54.8645L178.449 86.361C183 94.726 186.099 104.092 187.317 114.221H156.03C149.732 83.032 113.716 65.3205 84.515 82.1555C52.398 100.671 52.398 147.211 84.515 165.727C93.2965 170.789 102.694 172.723 111.715 172.11V211.851H92.43L89.223 200.712Z"
    fill="#FC60BC"
  />
  <g clip-path="url(#clip0_4056_64)">
    <path
      d="M177.383 133.055C177.458 140.703 172.894 136.013 172.957 140.309C172.985 142.272 175.407 144.023 176.718 146.558C178.275 149.571 178.727 153.435 178.226 156.49C177.9 158.477 177.24 160.478 176.355 162.306C173.951 167.272 170.121 169.993 164.01 169.509C158.203 169.048 152.353 169.097 146.528 168.809C144.429 168.706 138.258 166.638 138.074 167.911C137.8 169.799 138.874 171.127 140.528 171.637C143.43 172.531 146.419 173.407 149.432 173.681C155.232 174.208 161.1 174.086 166.89 174.677C169.954 174.99 173.103 175.864 175.878 177.146C180.455 179.261 181.65 182.964 181.19 188.712C180.747 194.247 178.036 198.041 173.047 200.593C171.932 201.163 170.871 201.844 169.841 202.548C168.095 203.741 168.221 205.134 170.129 206.004C171.24 206.51 172.385 206.949 173.501 207.446C178.669 209.751 182.066 216.327 180.769 221.496C180.121 224.081 176.809 225.209 174.648 223.601C171.343 221.143 167.77 219.228 163.503 218.811C160.016 218.471 157.05 219.508 154.791 222.085C154.346 222.593 153.953 223.594 154.19 224.075C154.466 224.636 155.424 225.109 156.147 225.207C157.536 225.395 158.969 225.336 160.381 225.3C169.344 225.073 175.107 228.992 178.15 237.081C181.732 246.604 174.016 254.085 166.065 255.645C160.564 256.724 155.866 254.841 151.557 251.798C147.511 248.94 144.196 245.402 141.102 241.353C144.064 241.483 146.808 241.463 149.515 241.755C153.175 242.15 156.811 242.762 160.447 243.337C161.145 243.447 161.827 243.761 162.469 244.072C164.264 244.943 164.283 245.982 162.716 247.222C161.813 247.534 160.631 248.301 161.384 249.086C162.183 249.848 162.786 249.918 163.549 250.124C164.185 250.296 164.927 250.234 165.599 250.137C167.557 249.855 169.426 249.292 170.244 247.356C171.07 245.4 170.05 243.789 168.836 242.305C165.603 238.351 160.995 237.335 156.112 236.976C149.217 236.468 142.314 236.053 135.426 235.474C133.87 235.343 132.303 234.837 130.841 234.27C127.11 232.824 125.744 229.575 127.163 226.001C129.482 226.629 131.755 227.46 134.109 227.838C139.251 228.666 143.999 227.645 148.023 224.326C150.027 222.674 151.12 220.604 150.677 217.98C150.436 216.546 149.554 216.104 148.323 216.943C147.088 217.784 145.914 218.723 144.801 219.708C141.715 222.439 138.124 223.19 134.114 222.246C129.843 221.241 126.001 219.521 123.773 215.641C121.34 211.402 122.891 205.596 127.412 201.697C128.342 200.895 129.392 200.222 130.138 199.672C131.912 200.958 133.44 202.15 135.063 203.21C136.074 203.872 137.163 203.851 137.854 202.692C138.551 201.521 138.381 200.473 137.259 199.551C136.223 198.7 135.099 197.875 134.315 196.832C132.216 194.04 132.711 190.315 135.355 187.984C135.642 187.731 136.097 187.515 136.476 187.513C140.931 187.485 145.388 187.427 149.839 187.543C151.515 187.586 153.252 187.857 154.834 188.377C158.708 189.65 160.881 193.08 160.287 196.604C159.743 199.836 156.568 202.257 152.573 202.469C151.85 202.507 151.109 202.395 150.403 202.509C148.692 202.562 149.02 204.295 149.322 204.645C152.108 207.874 156.493 208.681 160.3 206.737C169.284 202.147 169.974 190.467 161.586 185.045C158.476 183.035 155.01 181.921 151.305 181.743C146.786 181.525 142.245 181.708 137.728 181.473C133.355 181.245 129.444 179.749 126.499 176.504C124.216 173.989 123.731 171.096 124.942 167.968C127.269 161.956 133.323 158.845 140.527 160.167C145.393 161.06 150.166 162.445 155.05 163.198C158.113 163.67 161.348 163.71 164.433 163.356C169.403 162.787 172.363 159.785 173.433 155.138C174.511 150.453 173.26 146.49 169.204 143.513C165.86 141.058 161.944 139.979 157.837 139.443C153.366 138.861 148.944 139.053 144.612 140.35C142.149 141.24 141.889 142.785 142.034 143.554C142.13 144.065 143.406 144.697 144.169 144.716C147.786 144.807 151.417 144.535 155.025 144.72C158.857 144.918 162.715 145.324 165.729 148.076C167.924 150.079 168.816 152.619 167.963 154.675C167.033 156.917 164.613 158.358 161.514 158.192C159.285 158.073 157.056 157.699 154.861 157.277C150.178 156.375 145.534 155.279 140.84 154.445C138.835 154.089 136.742 154.188 134.629 154.077C132.504 148.792 131.251 145.613 136.773 140.701C141.879 136.159 147.928 132.988 155.186 133.159C157.681 133.219 160.144 134.263 162.637 134.789C164.733 135.232 166.847 135.601 168.964 135.94C169.35 136.002 171.132 136.363 170.651 135.557C169.89 134.445 169.402 133.349 168.574 132.59C164.815 129.146 160.17 127.704 155.054 127.456C154.367 127.422 153.677 127.443 152.988 127.432C152.923 127.431 152.859 127.39 152.605 127.303C154.462 124.502 156.761 122.249 160.156 121.458C164.669 120.407 168.975 121.242 172.834 123.656C176.725 126.091 177.335 128.1 177.383 133.055ZM126.206 183.098C125.163 182.517 124.51 182.588 123.651 183.272C119.145 186.856 117.822 191.635 118.019 196.955C118.089 198.836 118.684 200.572 120.386 201.708C121.843 200.523 123.127 199.287 124.608 198.328C126.117 197.35 127.82 196.646 129.501 195.789C128.801 192.121 129.91 188.776 131.985 185.716C129.983 184.829 128.01 184.102 126.206 183.098M193.987 133.393C194.109 128.832 194.582 126.772 196.342 124.994C202.137 119.139 212.364 119.824 217.146 126.374C217.345 126.647 217.515 126.94 217.77 127.336C210.689 127.59 204.207 128.811 200.288 135.117L200.473 135.848C201.842 135.848 203.238 136.012 204.573 135.802C205.918 135.589 207.244 135.101 208.505 134.568C213.569 132.428 218.613 132.642 223.581 134.734C227.533 136.398 231.297 138.414 234.245 141.591C236.891 144.443 237.81 147.654 236.356 151.364C235.992 152.292 235.73 153.259 235.417 154.217C227.347 153.643 219.993 156.884 212.261 157.889C210.524 158.115 208.704 158.231 206.985 157.983C203.172 157.434 201.332 153.634 203.172 150.329C205.034 146.983 208.188 145.417 211.88 145.148C216.461 144.813 221.071 144.837 225.669 144.754C226.772 144.734 227.911 144.864 228.213 143.501C228.509 142.17 227.953 141.141 226.612 140.719C218.235 138.079 210.075 138.461 202.433 142.924C197.757 145.655 196.129 150.196 197.445 155.41C198.704 160.401 202.039 163.089 207.622 163.614C213.544 164.171 219.158 162.619 224.781 161.188C228.474 160.249 232.156 159.439 235.995 160.254C241.826 161.493 246.298 167.403 245.288 172.612C244.704 175.625 242.683 177.632 240.109 179.139C236.985 180.966 233.566 181.624 229.925 181.56C224.721 181.469 219.485 181.112 214.383 182.569C211.184 183.482 208.352 185.045 206.083 187.424C201.305 192.435 202.516 201.016 208.595 205.686C212.559 208.731 217.131 208.498 220.65 204.978C221.08 204.547 221.268 203.706 221.214 203.084C221.194 202.844 220.201 202.588 219.627 202.51C218.438 202.346 217.203 202.431 216.041 202.176C212.62 201.425 210.531 199.133 210.152 195.904C209.832 193.179 211.732 190.161 214.672 188.727C217.521 187.338 220.584 187.499 223.637 187.523C226.791 187.546 229.946 187.484 233.099 187.541C233.695 187.552 234.436 187.793 234.853 188.187C237.723 190.898 237.61 195.262 234.637 198.107C234.058 198.661 233.366 199.102 232.734 199.604C231.646 200.471 231.559 201.561 232.194 202.671C232.846 203.81 233.912 203.892 234.925 203.213C236.512 202.147 238.016 200.963 239.681 199.737C243.637 201.389 247.184 206.854 247.078 211.455C246.974 215.968 243.873 219.548 238.322 221.559C233.231 223.404 228.591 223.01 224.612 219.026C223.803 218.215 222.843 217.526 221.875 216.893C220.795 216.187 219.995 216.454 219.707 217.773C219.053 220.776 220.448 223.002 222.732 224.712C228.367 228.932 234.512 228.882 240.865 226.509C241.424 226.3 241.966 226.052 242.51 225.824C244.109 228.682 243.011 232.689 239.814 233.835C236.57 234.998 233.073 235.702 229.627 236.067C223.465 236.718 217.248 236.854 211.075 237.419C207.671 237.731 204.657 239.161 202.367 241.752C200.872 243.442 199.519 245.256 200.633 247.644C201.476 249.454 204.386 250.565 207.064 250.118C207.814 249.992 208.488 249.439 209.197 249.082C208.76 248.452 208.441 247.682 207.864 247.219C206.3 245.967 206.275 244.659 208.21 244.069C211.164 243.167 214.221 242.451 217.289 242.069C221.098 241.593 224.962 241.538 229.338 241.268C227.104 243.749 225.276 245.984 223.228 248.006C219.496 251.691 215.351 254.763 209.931 255.766C200.44 257.523 190.787 249.089 191.992 240.048C193.176 231.153 200.515 225.029 209.669 225.275C211.193 225.316 212.735 225.392 214.238 225.208C214.969 225.119 215.905 224.614 216.228 224.025C216.467 223.588 216.051 222.559 215.611 222.06C212.681 218.744 208.831 217.912 204.8 219.287C201.744 220.33 198.888 222.042 196.113 223.723C194.087 224.952 190.942 224.077 190.275 221.775C188.866 216.915 191.899 210.243 196.68 207.784C197.932 207.141 199.261 206.641 200.543 206.052C202.441 205.178 202.593 203.7 200.858 202.518C199.493 201.588 198.11 200.657 196.637 199.908C189.17 196.108 188.938 187.116 190.482 181.793C191.277 179.051 193.637 177.591 196.136 176.486C201.013 174.33 206.269 174.441 211.47 174.121C216.62 173.804 221.764 173.3 226.883 172.67C228.211 172.506 229.533 171.694 230.673 170.921C231.316 170.485 231.846 169.551 231.939 168.785C232.02 168.115 231.603 167.07 231.059 166.748C230.638 166.498 229.684 167.119 228.961 167.334C227.268 167.839 225.593 168.657 223.87 168.771C218.46 169.129 213.028 169.175 207.609 169.425C199.268 169.811 194.508 166.159 192.925 157.655C192.42 154.946 192.489 152.086 192.672 149.319C192.833 146.875 194.18 144.89 196.419 143.587C197.088 143.198 197.785 142.804 198.326 142.274C198.813 141.798 199.939 140.198 197.805 139.249C197.805 139.249 193.866 137.953 193.987 133.393ZM250.723 201.503C255.406 198.077 252.374 185.349 246.11 182.605L239.115 185.718C241.281 188.782 242.197 192.207 241.642 195.43L250.723 201.503Z"
      fill="#FC60BC"
    />
  </g>
  <defs>
    <clipPath id="clip0_4056_64">
      <rect
        width="135"
        height="135"
        fill="white"
        transform="translate(118 121)"
      />
    </clipPath>
  </defs>
</svg>
